<?xml version="1.0" encoding="utf-8"?>
<svg version="1.1" xmlns="http://www.w3.org/2000/svg" xmlns:xlink="http://www.w3.org/1999/xlink" viewBox="0 0 147 66" width="147" height="66">
<g>
  <path d="M118.2,14.3c-0.2-0.3-0.5-0.4-0.7-0.3l-2,0.5c-0.1,0-0.2,0.1-0.3,0.2c0,0-0.1,0.1-0.1,0.1l-0.1-0.1l-2.1,1.9H89.2v-0.4
    c0,0,0-0.1,0-0.1v-0.1h0c0-0.1-0.1-0.1-0.1-0.2l-0.9-0.8C88,7.1,81.5,0.9,73.2,0.9c-8.3,0-14.8,6.2-14.9,14.2l-1,0.8
    c-0.1,0.1-0.1,0.1-0.2,0.2H57v0.6H33c0,0-0.1,0-0.1,0l-2-1.9c0,0,0-0.1-0.1-0.1c-0.1-0.1-0.2-0.2-0.3-0.2l-2-0.5
    c-0.2-0.1-0.6,0-0.7,0.3c-0.1,0.2-0.1,0.2,0,0.4l0.6,2c0,0.3,0.2,0.4,0.4,0.5l2.1,2l11,45.7H42h61.4h0.5l11-45.7l0,0l0.1-0.1
    c0,0,0.1-0.1,0.1-0.1l1.9-1.8c0.2,0,0.6-0.2,0.6-0.5l0.6-2C118.3,14.6,118.3,14.5,118.2,14.3z M62.9,19.9v-1.6h20V20h0.2
    c-0.3,2.4-2.3,5.3-5.2,5.3h-9.4c-2.9,0-5.6-3-5.9-5.4H62.9z M62.2,16.2C62.2,16.2,62.2,16.2,62.2,16.2v-0.1h0
    c0-0.1-0.1-0.1-0.1-0.2L62,15.8v-0.4c0-6.2,5-11.2,11.2-11.2c6.2,0,11.2,5,11.2,11.2v0.4l-0.2,0.1c-0.1,0.1-0.1,0.1-0.2,0.2H84v0.6
    H62.2V16.2z"/>
  <circle cx="73" cy="22.1" r="1.2"/>
</g>
</svg>
