<?xml version="1.0" encoding="utf-8"?>
<svg version="1.1" xmlns="http://www.w3.org/2000/svg" xmlns:xlink="http://www.w3.org/1999/xlink" viewBox="0 0 147 32" width="147" height="32">
  <g>
    <path d="M 96.2 17.4 C 95.3 10.7 94.9 7.3 94.8 3.8 C 94.8 2.8 93.7 1.1 91.8 1.5 C 90.7 1.9 90.7 1.9 83 2.1 C 83 3.2 83.1 14.2 72.4 14.2 C 62.2 14.2 62.3 2.9 62.3 2.1 C 55.9 1.9 55.9 1.9 52.9 1.5 C 50.8 1.3 49.8 2.9 49.9 3.8 C 50.1 7.2 49.4 10.7 48.5 17.4 C 47.6 24.1 49 26.5 49 26.5 C 52 32.4 58.9 30.9 64.2 30.5 C 64.2 30.5 68.8 30.1 72.5 30.1 C 75.9 30.1 80.5 30.5 80.5 30.5 C 85.8 30.9 92.7 32.4 95.7 26.5 C 95.6 26.5 97 24.1 96.2 17.4 Z"/>
    <ellipse cx="72.5" cy="6.4" rx="1" ry="1"/>
    <rect x="62.3" y="1.1" width="20.7" height="1"/>
  </g>
</svg>
