<?xml version="1.0" encoding="utf-8"?>
<svg version="1.1" xmlns="http://www.w3.org/2000/svg" xmlns:xlink="http://www.w3.org/1999/xlink" viewBox="0 0 147 80" width="147" height="80">
<g>
  <path d="M128,17.2c-0.2-0.4-0.6-0.5-0.9-0.4l-2.4,0.6c-0.1,0-0.3,0.1-0.4,0.2c0,0-0.1,0.1-0.1,0.2l-0.1-0.1l-2.5,2.3H93.1v-0.5
    c0,0,0-0.1,0-0.1v-0.1h0c0-0.1-0.1-0.1-0.2-0.2L91,17.5c-0.1-0.1-0.2-0.1-0.3-0.2C90.1,8.5,82.8,2,73.8,2c-9,0-16.3,6.5-16.9,15.3
    c-0.1,0.1-0.2,0.1-0.3,0.2l-2,1.6c-0.1,0.1-0.1,0.1-0.2,0.2h-0.1V20H25.4c0,0-0.1,0-0.1,0l-2.4-2.3c0,0,0-0.1-0.1-0.1
    c-0.1-0.1-0.3-0.2-0.4-0.2L20,16.8c-0.3-0.1-0.7,0-0.9,0.4c-0.1,0.2-0.1,0.3,0,0.5l0.7,2.4c0,0.3,0.3,0.5,0.5,0.6l2.5,2.4l13.3,55
    h0.2h73.9h0.6l13.3-55l0,0l0.1-0.1c0.1,0,0.1-0.1,0.1-0.1l2.3-2.2c0.3,0,0.7-0.2,0.7-0.6l0.7-2.4C128.1,17.5,128.1,17.4,128,17.2z
     M61.4,23.9v-1.4h0.1V22h24v2h0.3c-0.3,2.8-2.8,6.4-6.3,6.4H68.2c-3.5,0-6.7-3.7-7.1-6.5H61.4z M60.6,19.5c0,0,0-0.1,0-0.1v-0.1h0
    c0-0.1-0.1-0.1-0.2-0.2l-1.1-0.9C59.5,10.3,65.9,4,73.8,4c7.9,0,14.3,6.3,14.5,14.2l-1.2,0.9c-0.1,0.1-0.1,0.1-0.2,0.2h-0.1V20
    H60.6V19.5z"/>
  <circle cx="73.6" cy="26.6" r="1.5"/>
</g>
</svg>
