<?xml version="1.0" encoding="utf-8"?>
<svg version="1.1" xmlns="http://www.w3.org/2000/svg" xmlns:xlink="http://www.w3.org/1999/xlink" viewBox="0 0 147 97" width="147" height="97">
<g>
  <path d="M138.8,21.5c-0.2-0.5-0.7-0.6-1.1-0.5l-2.9,0.7c-0.1,0-0.4,0.1-0.5,0.2c0,0-0.1,0.1-0.1,0.2l-0.1-0.1l-3,2.8H96.7v-0.6
    c0,0,0-0.1,0-0.1v-0.1h0c0-0.1-0.1-0.2-0.2-0.2l-1.3-1.1C94.9,11.1,85.5,2,73.4,2c-12,0-21.4,9-21.7,20.7l-1.5,1.2
    c-0.1,0.1-0.2,0.2-0.2,0.2h-0.1v0.8H15c0,0-0.1,0-0.1,0L12,22.2c0,0,0-0.1-0.1-0.1c-0.1-0.1-0.4-0.2-0.5-0.2l-2.9-0.7
    c-0.4-0.1-0.8,0-1.1,0.5c-0.1,0.2-0.1,0.4,0,0.6L8.3,25c0,0.4,0.3,0.6,0.6,0.7l3,2.8l16,66.3h0.2h89.1h0.7l16-66.3l0,0l0.1-0.1
    c0.1,0,0.1-0.1,0.2-0.1l2.8-2.6c0.4,0,0.8-0.2,0.8-0.7l0.8-2.9C138.9,21.9,138.9,21.8,138.8,21.5z M58.5,29.6v-2.3h29.1v2.4h0.3
    c-0.4,3.4-3.4,7.7-7.6,7.7H66.7c-4.2,0-8.1-4.4-8.5-7.8H58.5z M57.5,24.3c0,0,0-0.1,0-0.1v-0.1h0c0-0.1-0.1-0.2-0.2-0.2l-0.1-0.1
    v-0.6c0-9,7.3-16.3,16.3-16.3c9,0,16.3,7.3,16.3,16.3v0.5l-0.2,0.2c-0.1,0.1-0.2,0.2-0.2,0.2h-0.1v0.8H57.5V24.3z"/>
  <circle cx="73.2" cy="32.9" r="1.8"/>
</g>
</svg>
