<?xml version="1.0" encoding="utf-8"?>
<!-- Generator: Adobe Illustrator 22.0.1, SVG Export Plug-In . SVG Version: 6.00 Build 0)  -->
<svg version="1.1" id="Calque_1" xmlns="http://www.w3.org/2000/svg" xmlns:xlink="http://www.w3.org/1999/xlink" x="0px" y="0px"
	 viewBox="0 0 147 110" style="enable-background:new 0 0 147 110;" xml:space="preserve">
<path d="M407,196.4l-3.5-0.1l0,0c-0.1-0.1-0.1-0.1-0.3-0.2c-0.2-0.1-0.3,0-0.4,0.1c0,0-1.6,1-2.2,1.2c-0.4,0.1-0.6,0.6-0.4,1
	c0.1,0.2,0.1,0.3,0.4,0.4c0.6,0.3,1.6,1.1,2.2,1.4c0.2,0.1,0.8,0.1,0.8,0.1h3.9"/>
<g>
	<path d="M123.6,93.4c-4.8-3.2-10.7-8-15-11.6c0-6.3,0-12.2,0-15.7c0-2.2-0.5-4.3-1.5-6.2c-3.7-7.1-12.8-23.3-12.8-23.3
		c0-1.1-0.9-2-2-2h-3.3V34c-0.1-0.1-0.1-0.2-0.3-0.3l-1-0.8h0c0-7.9-6.4-14.3-14.3-14.3S59.2,25,59.2,32.9h0l-1,0.8
		C58,33.8,58,33.9,57.9,34v0.7h-3.3c-1.1,0-2,0.9-2,2c0,0-9.1,16.3-12.8,23.3c-1,1.9-1.5,4.1-1.5,6.2c0,3.4,0,9.3,0,15.7
		c-4.2,3.5-10.2,8.4-15,11.6c-4,2.7-6.6,6.6-6.4,9.9c0.1,2,1.2,3.7,3,4.7c1,0.6,2.2,0.8,3.6,0.8c0.9,0,1.4,0,1.7,0l0,0.1h1.2
		c0.1,0,0.3,0,0.5,0v0h2.2c0,0,0.6,0,0.8-0.1c0.6-0.3,1.6-1.1,2.2-1.4c0.2-0.1,0.3-0.2,0.3-0.3c0.1,0.1,0.1,0.2,0.3,0.2
		c0.6,0.3,1.6,1.2,2.1,1.5c0.2,0.1,0.6,0.2,0.8,0.1l2.7,0c0,0,0,0,0,0h35.1h35.1c0,0,0,0,0,0l2.7,0c0.2,0.1,0.6,0,0.8-0.1
		c0.6-0.3,1.6-1.2,2.1-1.5c0.1-0.1,0.2-0.1,0.3-0.2c0.1,0.2,0.1,0.2,0.3,0.3c0.6,0.3,1.6,1.1,2.2,1.4c0.2,0.1,0.8,0.1,0.8,0.1h2.2v0
		c0.2,0,0.3,0,0.5,0h1.2l0-0.1c0.3,0,0.8,0,1.7,0c1.4,0,2.6-0.3,3.6-0.8c1.8-1,2.9-2.6,3-4.7C130.2,100,127.7,96.1,123.6,93.4z
		 M35.7,105c-0.1-0.1-0.1-0.1-0.3-0.2c-0.2,0-0.3,0-0.4,0.1c0,0-1.6,1-2.2,1.2c-0.2,0.1-0.3,0.2-0.4,0.3c-0.1-0.2-0.2-0.3-0.4-0.4
		c-0.6-0.2-2.2-1.2-2.2-1.2c-0.2-0.1-0.2-0.2-0.4-0.1c-0.1,0-0.2,0.1-0.3,0.2l-2.7,0c-0.3-0.1-0.9-0.1-2.8-0.1
		c-0.7,0-1.3-0.1-1.7-0.4c-0.6-0.3-0.9-0.7-0.9-1.3c-0.1-1.6,1.5-4.3,4.6-6.4c4-2.7,8.8-6.4,12.7-9.7c0,7,0,13.8,0,17.9L35.7,105z
		 M73.5,23.6c5.1,0,9.3,4.2,9.3,9.3h0v1.6v0.2h-9.3h-9.3v-0.2v-1.6h0C64.2,27.7,68.4,23.6,73.5,23.6z M92.4,49.1
		c0,4.4-4,10.8-9.6,10.8H65.4c-5.6,0-10.8-6.2-10.8-10.8v-1.7V36.7h37.7V49.1z M125.1,104.5c-0.4,0.2-1,0.4-1.7,0.4
		c-1.9,0-2.5,0-2.8,0.1l-2.7,0c-0.1-0.1-0.1-0.1-0.3-0.2c-0.2-0.1-0.3,0-0.4,0.1c0,0-1.6,1-2.2,1.2c-0.2,0.1-0.3,0.2-0.4,0.4
		c-0.1-0.2-0.2-0.3-0.4-0.3c-0.6-0.2-2.2-1.2-2.2-1.2c-0.1-0.1-0.2-0.2-0.4-0.1c-0.1,0-0.2,0.1-0.3,0.2l-2.7,0c0-4.1,0-11,0-17.9
		c3.9,3.2,8.7,7,12.7,9.7c3.1,2.1,4.7,4.8,4.6,6.4C126,103.7,125.7,104.1,125.1,104.5z"/>
	<path d="M73.5,57.7c0.9,0,1.6-0.7,1.6-1.6s-0.7-1.6-1.6-1.6c-0.9,0-1.6,0.7-1.6,1.6S72.6,57.7,73.5,57.7z"/>
</g>
</svg>
